<svg width="400" height="400" viewBox="0 0 400 400" fill="none" xmlns="http://www.w3.org/2000/svg">
<circle cx="200" cy="200" r="200" fill="url(#paint0_linear_25_26)"/>
<path d="M132.426 236.648C132.426 256.648 116.212 272.861 96.2134 272.861C76.2134 272.861 60 256.648 60 236.648C60 216.648 76.2134 200.436 96.2134 200.436C116.213 200.436 132.426 216.648 132.426 236.648Z" fill="white"/>
<path d="M179.105 245.258C155.734 214.766 132.363 184.275 108.993 153.783C122.683 144.856 136.375 135.928 150.066 127C172.118 155.643 194.169 184.287 216.22 212.929C203.849 223.705 191.477 234.482 179.105 245.258Z" fill="white"/>
<path d="M225.047 127.001H198.513V270.466H225.047V127.001Z" fill="white"/>
<path d="M282.935 270.465C255.37 235.065 227.804 199.666 200.239 164.267C212.691 154.653 225.143 145.039 237.594 135.424C248.28 149.638 259.022 163.873 269.821 178.129C286.061 199.566 302.292 220.869 318.511 242.036L282.935 270.465Z" fill="white"/>
<path d="M108.992 153.783V127H150.066C143.221 131.464 136.375 135.928 129.529 140.392C122.684 144.856 115.838 149.319 108.992 153.783" fill="white"/>
<path d="M198.439 270.53C191.995 262.105 185.55 253.681 179.105 245.258C186.665 238.66 194.225 232.062 201.785 225.465C201.299 232.72 200.785 240.02 200.241 247.36C199.666 255.135 199.065 262.858 198.439 270.53Z" fill="white"/>
<path d="M231.224 127H225.047V145.205H231.224V127Z" fill="white"/>
<path d="M237.594 135.424C235.471 137.07 233.348 138.716 231.224 140.362V127.001C233.348 129.808 235.471 132.616 237.594 135.424Z" fill="white"/>
<path d="M339.958 240.089H282.934V270.466H339.958V240.089Z" fill="white"/>
<defs>
<linearGradient id="paint0_linear_25_26" x1="-0.000303357" y1="200" x2="400" y2="200" gradientUnits="userSpaceOnUse">
<stop stop-color="#F05322"/>
<stop offset="0.65" stop-color="#FAA41A"/>
<stop offset="1" stop-color="#FAA41A"/>
</linearGradient>
</defs>
</svg>
