<svg width="141" height="22" viewBox="0 0 141 22" fill="none" xmlns="http://www.w3.org/2000/svg">
<path fill-rule="evenodd" clip-rule="evenodd" d="M0 16.5381C0 19.5526 2.44745 22 5.46197 22C8.47653 22 10.9239 19.5526 10.9239 16.5381C10.9239 13.5236 8.4765 11.0762 5.46197 11.0762C2.44741 11.0762 0 13.5236 0 16.5381Z" fill="url(#paint0_linear_44_18)"/>
<path d="M25.8253 0H20.8913V9.49146C18.4557 6.32765 16.0199 3.16385 13.5843 0H7.38916V4.03971C10.9142 8.63864 14.439 13.2377 17.9642 17.8367C18.9361 19.1072 19.9082 20.3778 20.8803 21.6483C20.884 21.601 20.8876 21.5528 20.8912 21.5057V21.6386H24.8933V10.4259C27.8039 14.1633 30.7142 17.9007 33.6244 21.6383V21.6388H42.2255V17.0572H38.7663C36.3946 13.961 34.0213 10.8464 31.6467 7.71164C30.0179 5.56136 28.3977 3.41434 26.786 1.27057C26.4658 0.847088 26.1455 0.423561 25.8253 7.56536e-05V0Z" fill="url(#paint1_linear_44_18)"/>
<path d="M49.1024 3.28002V9.40924H56.3132V12.2034H49.1024V18.6031H57.2146V21.3973H45.6772V0.485821H57.2146V3.28002H49.1024ZM72.2797 21.3973L67.4724 13.0447H64.8585V21.3973H61.4333V0.515866H68.6442C70.2466 0.515866 71.5986 0.796288 72.7003 1.35713C73.822 1.91797 74.6532 2.66911 75.194 3.61052C75.7549 4.55194 76.0353 5.60352 76.0353 6.76527C76.0353 8.12732 75.6347 9.36918 74.8335 10.4909C74.0523 11.5925 72.8405 12.3437 71.198 12.7443L76.3658 21.3973H72.2797ZM64.8585 10.3106H68.6442C69.9261 10.3106 70.8876 9.99012 71.5285 9.34915C72.1895 8.70819 72.52 7.84689 72.52 6.76527C72.52 5.68364 72.1995 4.84238 71.5586 4.24147C70.9176 3.62054 69.9461 3.31007 68.6442 3.31007H64.8585V10.3106ZM79.2753 10.9115C79.2753 8.86843 79.746 7.03567 80.6874 5.41323C81.6488 3.79079 82.9408 2.52889 84.5632 1.62754C86.2057 0.706152 87.9984 0.245459 89.9413 0.245459C92.1646 0.245459 94.1376 0.796288 95.8602 1.89795C97.6028 2.97957 98.8647 4.52189 99.6459 6.52491H95.5297C94.9889 5.42325 94.2378 4.60201 93.2763 4.0612C92.3149 3.52039 91.2032 3.24998 89.9413 3.24998C88.5592 3.24998 87.3274 3.56045 86.2457 4.18138C85.1641 4.80231 84.3128 5.69365 83.6919 6.8554C83.091 8.01715 82.7905 9.36918 82.7905 10.9115C82.7905 12.4538 83.091 13.8059 83.6919 14.9676C84.3128 16.1294 85.1641 17.0307 86.2457 17.6717C87.3274 18.2926 88.5592 18.6031 89.9413 18.6031C91.2032 18.6031 92.3149 18.3327 93.2763 17.7919C94.2378 17.251 94.9889 16.4298 95.5297 15.3281H99.6459C98.8647 17.3312 97.6028 18.8735 95.8602 19.9551C94.1376 21.0367 92.1646 21.5775 89.9413 21.5775C87.9783 21.5775 86.1856 21.1269 84.5632 20.2255C82.9408 19.3041 81.6488 18.0322 80.6874 16.4098C79.746 14.7873 79.2753 12.9546 79.2753 10.9115ZM107.05 0.515866V13.8259C107.05 15.4083 107.461 16.6001 108.282 17.4013C109.123 18.2025 110.285 18.6031 111.767 18.6031C113.27 18.6031 114.431 18.2025 115.253 17.4013C116.094 16.6001 116.514 15.4083 116.514 13.8259V0.515866H119.94V13.7658C119.94 15.4684 119.569 16.9105 118.828 18.0923C118.087 19.2741 117.095 20.1554 115.853 20.7363C114.612 21.3172 113.239 21.6076 111.737 21.6076C110.235 21.6076 108.863 21.3172 107.621 20.7363C106.399 20.1554 105.428 19.2741 104.707 18.0923C103.986 16.9105 103.625 15.4684 103.625 13.7658V0.515866H107.05ZM131.279 21.6076C129.877 21.6076 128.615 21.3672 127.494 20.8865C126.372 20.3858 125.491 19.6847 124.85 18.7833C124.209 17.882 123.888 16.8304 123.888 15.6286H127.554C127.634 16.53 127.985 17.2711 128.605 17.8519C129.246 18.4328 130.138 18.7233 131.279 18.7233C132.461 18.7233 133.383 18.4428 134.044 17.882C134.705 17.3011 135.035 16.56 135.035 15.6586C135.035 14.9576 134.825 14.3867 134.404 13.9461C134.004 13.5054 133.493 13.1649 132.872 12.9245C132.271 12.6842 131.43 12.4238 130.348 12.1434C128.986 11.7828 127.874 11.4223 127.013 11.0617C126.172 10.6812 125.451 10.1003 124.85 9.31911C124.249 8.53793 123.948 7.49637 123.948 6.19441C123.948 4.9926 124.249 3.94102 124.85 3.03966C125.451 2.13831 126.292 1.44727 127.374 0.966545C128.455 0.485821 129.707 0.245459 131.129 0.245459C133.152 0.245459 134.805 0.756227 136.087 1.77776C137.389 2.77927 138.11 4.16135 138.25 5.924H134.464C134.404 5.16286 134.044 4.51188 133.383 3.97106C132.722 3.43025 131.85 3.15984 130.769 3.15984C129.787 3.15984 128.986 3.41022 128.365 3.91097C127.744 4.41173 127.434 5.13281 127.434 6.07423C127.434 6.71519 127.624 7.24599 128.005 7.66662C128.405 8.06723 128.906 8.38771 129.507 8.62807C130.108 8.86843 130.929 9.12882 131.971 9.40924C133.353 9.78982 134.474 10.1704 135.336 10.551C136.217 10.9315 136.958 11.5224 137.559 12.3236C138.18 13.1048 138.49 14.1564 138.49 15.4784C138.49 16.54 138.2 17.5415 137.619 18.4829C137.058 19.4243 136.227 20.1855 135.125 20.7663C134.044 21.3272 132.762 21.6076 131.279 21.6076Z" fill="#231F20"/>
<defs>
<linearGradient id="paint0_linear_44_18" x1="-2.72692e-05" y1="16.5381" x2="10.9238" y2="16.5381" gradientUnits="userSpaceOnUse">
<stop stop-color="#F05322"/>
<stop offset="0.65" stop-color="#FAA41A"/>
<stop offset="1" stop-color="#FDD503"/>
</linearGradient>
<linearGradient id="paint1_linear_44_18" x1="7.38911" y1="10.8242" x2="33.6521" y2="10.8242" gradientUnits="userSpaceOnUse">
<stop stop-color="#F05322"/>
<stop offset="0.65" stop-color="#FAA41A"/>
<stop offset="1" stop-color="#FAA41A"/>
</linearGradient>
</defs>
</svg>
